# xmcd CD database file
#
# Track frame offsets:
#	150
#	11620
#	24347
#	39492
#	49915
#	64570
#	77842
#	90737
#	103235
#	116745
#
# Disc length: 2139 seconds
#
# Revision: 1
# Processed by: cddbd v1.5.2PL0 Copyright (c) Steve Scherf et al.
# Submitted via: CDex 1.70beta2
#
DISCID=7a08590a
DTITLE=Kaleidoscope - Bernice
DYEAR=1970
DGENRE=Psychedelic
TTITLE0=Chocolate Whale
TTITLE1=Another Lover
TTITLE2=Sneakin' In The Ghetto
TTITLE3=To Know Is Not To Be
TTITLE4=Lulu Arfin Nanny
TTITLE5=Lie And Hide
TTITLE6=Ballad Of Tommy Udo
TTITLE7=Bernice
TTITLE8=Soft And Easy
TTITLE9=New Blue Ooze
EXTD=YEAR: 1970
EXTT0=
EXTT1=
EXTT2=
EXTT3=
EXTT4=
EXTT5=
EXTT6=
EXTT7=
EXTT8=
EXTT9=
PLAYORDER=
